<svg preserveAspectRatio="xMidYMid meet" width="100%" overflow="visible" style="display: block;" viewBox="0 0 1448.88 249.204" fill="none" xmlns="http://www.w3.org/2000/svg">
<g id="Layout">
<path id="Vector" d="M1221.99 56.3798V3.31726H1448.88V56.3798H1370.36V245.889H1300.51V56.3798H1221.99Z" fill="var(--fill-0, #E4F222)" fill-opacity="0.49"/>
<path id="Vector_2" d="M1131.76 3.31726H1202.63V158.715C1202.63 177.192 1197.87 193.182 1188.35 206.684C1178.92 220.108 1165.75 230.491 1148.84 237.835C1131.93 245.099 1112.3 248.732 1089.95 248.732C1067.44 248.732 1047.72 245.099 1030.81 237.835C1013.9 230.491 1000.73 220.108 991.298 206.684C981.951 193.182 977.277 177.192 977.277 158.715V3.31726H1048.15V153.029C1048.15 160.531 1049.93 167.243 1053.5 173.165C1057.07 179.008 1062 183.588 1068.29 186.904C1074.66 190.221 1081.88 191.879 1089.95 191.879C1098.11 191.879 1105.33 190.221 1111.62 186.904C1117.91 183.588 1122.84 179.008 1126.41 173.165C1129.98 167.243 1131.76 160.531 1131.76 153.029V3.31726Z" fill="var(--fill-0, #E4F222)" fill-opacity="0.49"/>
<path id="Vector_3" d="M951.665 124.602C951.665 151.607 946.015 174.388 934.713 192.944C923.411 211.421 908.159 225.437 888.954 234.991C869.75 244.467 848.336 249.204 824.714 249.204C800.921 249.204 779.422 244.427 760.218 234.873C741.099 225.239 725.888 211.184 714.587 192.707C703.37 174.151 697.762 151.449 697.762 124.602C697.762 97.5972 703.37 74.8561 714.587 56.379C725.888 37.8228 741.099 23.8071 760.218 14.3316C779.422 4.77721 800.921 0 824.714 0C848.336 0 869.75 4.77721 888.954 14.3316C908.159 23.8071 923.411 37.8228 934.713 56.379C946.015 74.8561 951.665 97.5972 951.665 124.602ZM878.757 124.602C878.757 110.073 876.675 97.8341 872.512 87.8848C868.433 77.8566 862.357 70.2763 854.285 65.1437C846.297 59.9322 836.44 57.3265 824.714 57.3265C812.987 57.3265 803.088 59.9322 795.015 65.1437C787.027 70.2763 780.952 77.8566 776.788 87.8848C772.709 97.8341 770.67 110.073 770.67 124.602C770.67 139.131 772.709 151.41 776.788 161.438C780.952 171.387 787.027 178.968 795.015 184.179C803.088 189.312 812.987 191.878 824.714 191.878C836.44 191.878 846.297 189.312 854.285 184.179C862.357 178.968 868.433 171.387 872.512 161.438C876.675 151.41 878.757 139.131 878.757 124.602Z" fill="var(--fill-0, #E4F222)" fill-opacity="0.49"/>
<path id="Vector_4" d="M439.024 3.31724H518.051L569.035 101.862H571.075L622.059 3.31724H701.086L605.234 169.611V245.889H534.876V169.611L439.024 3.31724Z" fill="var(--fill-0, #E4F222)" fill-opacity="0.49"/>
<path id="Vector_5" d="M265.685 245.889H189.208L275.372 3.31724H372.243L458.407 245.889H381.93L324.828 70.1192H322.788L265.685 245.889ZM251.41 150.187H395.186V199.459H251.41V150.187Z" fill="var(--fill-0, #E4F222)" fill-opacity="0.49"/>
<path id="Vector_6" d="M0 245.889V3.31724H70.8687V192.826H176.407V245.889H0Z" fill="var(--fill-0, #E4F222)" fill-opacity="0.49"/>
</g>
</svg>
