<svg viewBox="0 0 146.526 43.728" fill="none" xmlns="http://www.w3.org/2000/svg">
  <g fill="white">
    <g transform="translate(0, 0)"><path d="M22.272 34.464H0V0H7.296V27.888H22.272V34.464Z"/></g>
    <g transform="translate(24.397, 8.352)"><path d="M16.608 26.112V22.944C14.928 25.344 12.384 26.592 8.88 26.592C3.552 26.592 0 23.472 0 18.672C0 13.68 4.032 10.992 11.52 10.992C12.96 10.992 14.208 11.088 15.792 11.28V9.744C15.792 6.864 14.16 5.184 11.376 5.184C8.496 5.184 6.768 6.864 6.528 9.744H0.528C0.912 3.84 5.184 0 11.376 0C18.096 0 22.032 3.696 22.032 9.984V26.112H16.608ZM6.288 18.48C6.288 20.64 7.824 21.984 10.32 21.984C13.728 21.984 15.792 20.112 15.792 17.136V15.312C14.208 15.072 13.104 14.976 11.952 14.976C8.16 14.976 6.288 16.176 6.288 18.48Z"/></g>
    <g transform="translate(47.256, 8.833)"><path d="M26.16 0L13.68 34.896H6.432L10.08 25.344L0 0H7.2L13.632 17.568L19.488 0H26.16Z"/></g>
    <g transform="translate(72.826, 8.352)"><path d="M13.008 26.592C5.568 26.592 0 20.736 0 13.296C0 5.808 5.568 0 13.008 0C20.448 0 26.016 5.808 26.016 13.296C26.016 20.736 20.448 26.592 13.008 26.592ZM13.008 20.688C16.32 20.688 19.152 18.048 19.152 13.296C19.152 8.544 16.32 5.952 13.008 5.952C9.696 5.952 6.86401 8.544 6.86401 13.296C6.86401 18.048 9.696 20.688 13.008 20.688Z"/></g>
    <g transform="translate(101.878, 8.833)"><path d="M15.84 14.832V0H22.464V25.632H16.368V22.272C14.976 24.528 12.144 26.112 8.88 26.112C3.744 26.112 0 22.992 0 16.32V0H6.672V15.024C6.672 18.624 8.448 20.208 11.136 20.208C13.536 20.208 15.84 18.288 15.84 14.832Z"/></g>
    <g transform="translate(127.387, 1.246)"><path d="M18.912 26.736V32.544C17.28 33.36 15.744 33.696 13.776 33.696C8.496 33.696 5.18401 30.672 5.18401 24.912V13.296H0V7.584H5.18401V0H11.808V7.584H19.152V13.296H11.808V23.376C11.808 26.352 13.152 27.552 15.552 27.552C16.8 27.552 17.952 27.264 18.912 26.736Z"/></g>
  </g>
</svg>
