<svg width="28" height="28" viewBox="0 0 28 28" fill="none" xmlns="http://www.w3.org/2000/svg">
<path d="M13.7332 2.01052C14.0251 1.97863 14.4688 2.02559 14.7597 2.0669C17.9035 2.51321 19.181 6.24933 20.0508 8.81799C21.5159 13.1448 22.2078 17.7588 24.5534 21.7311C24.9288 22.3993 25.411 22.9924 25.9381 23.5463C26.3201 23.9477 27.0281 24.6207 27.0203 25.2141C27.009 26.0742 25.8758 26.0198 25.286 25.8658C24.7227 25.7188 24.2901 25.3091 23.8441 24.9593C22.126 23.6525 20.8883 21.808 19.8102 19.9646C18.4208 17.5889 17.2936 15.0928 14.1875 14.8937C13.811 14.8943 13.4351 14.9269 13.0641 14.9911C9.80505 15.5836 8.66571 19.6263 6.91528 21.9749C6.0191 23.1773 5.10499 24.2764 3.86933 25.1547C3.43307 25.4647 3.06716 25.847 2.50163 25.9239C2.05095 25.993 0.932112 26.1135 0.884258 25.4418C0.82658 24.6325 1.81345 23.781 2.32181 23.2178C2.55887 22.9513 2.78214 22.6729 2.99075 22.3836C3.40613 21.8131 3.66904 21.2767 4.0133 20.6674C4.38932 20.0019 4.58817 19.421 4.86179 18.7192C5.14834 17.9844 5.4444 17.2434 5.6875 16.491C5.82796 16.0496 5.9163 15.5804 6.05529 15.1404C6.50365 13.721 6.91098 12.3087 7.26237 10.863C7.46825 10.016 7.84113 9.13214 8.10169 8.29749C8.2342 7.87301 8.39728 7.44037 8.53733 7.01736C8.9451 6.04106 9.54862 4.80547 10.1868 3.96826C10.7393 3.24338 11.7167 2.3995 12.6141 2.17288C12.897 2.10145 13.4256 2.04756 13.7332 2.01052Z" fill="#FEFEFE"/>
</svg>
