<svg width="28" height="28" viewBox="-1.72 0 28 28" fill="none" xmlns="http://www.w3.org/2000/svg">
<path d="M24.071 6.62737L12.8619 0.155893C12.502 -0.0519644 12.0578 -0.0519644 11.6979 0.155893L0.489386 6.62737C0.18681 6.80208 0 7.12515 0 7.4751V20.5249C0 20.8743 0.18681 21.1979 0.489386 21.3726L11.6984 27.8441C12.0584 28.052 12.5025 28.052 12.8625 27.8441L24.0715 21.3726C24.3741 21.1979 24.5609 20.8748 24.5609 20.5249V7.4751C24.5609 7.12569 24.3741 6.80208 24.0715 6.62737H24.071ZM23.3669 7.99818L12.5462 26.7401C12.473 26.8664 12.2799 26.8148 12.2799 26.6685V14.3965C12.2799 14.1513 12.1489 13.9245 11.9363 13.8013L1.30872 7.6656C1.18242 7.59247 1.23399 7.39931 1.38028 7.39931H23.0217C23.329 7.39931 23.5211 7.73243 23.3674 7.99872H23.3669V7.99818Z" fill="white"/>
</svg>
