<svg width="28" height="28" viewBox="-0.13 0 28.25 28" fill="none" xmlns="http://www.w3.org/2000/svg">
<path d="M10.836 10.192V7.53194C10.836 7.30791 10.9201 7.13985 11.116 7.02798L16.4641 3.94798C17.1921 3.528 18.0601 3.3321 18.956 3.3321C22.3159 3.3321 24.4441 5.93615 24.4441 8.70804C24.4441 8.90399 24.4441 9.12802 24.416 9.35205L18.872 6.10398C18.536 5.90808 18.1999 5.90808 17.8639 6.10398L10.836 10.192ZM23.324 20.552V14.1959C23.324 13.8038 23.1559 13.5238 22.82 13.3279L15.792 9.23989L18.088 7.9238C18.2839 7.81193 18.452 7.81193 18.648 7.9238L23.9961 11.0038C25.5362 11.8999 26.572 13.8038 26.572 15.6517C26.572 17.7796 25.3121 19.7397 23.324 20.5518V20.552ZM9.18398 14.9521L6.88799 13.6081C6.69209 13.4963 6.608 13.3282 6.608 13.1041V6.94418C6.608 3.94827 8.90399 1.68011 12.0121 1.68011C13.1882 1.68011 14.28 2.0722 15.2042 2.77218L9.68823 5.96428C9.35234 6.16018 9.18427 6.44017 9.18427 6.83232V14.9523L9.18398 14.9521ZM14.126 17.808L10.836 15.96V12.0402L14.126 10.1922L17.4159 12.0402V15.96L14.126 17.808ZM16.24 26.3201C15.0639 26.3201 13.9722 25.928 13.0479 25.2281L18.5639 22.036C18.8998 21.8401 19.0679 21.5601 19.0679 21.1679V13.0479L21.392 14.3919C21.5879 14.5037 21.672 14.6718 21.672 14.8959V21.0558C21.672 24.0517 19.3479 26.3199 16.24 26.3199V26.3201ZM9.60397 20.0761L4.2558 16.9962C2.71569 16.1 1.67982 14.1962 1.67982 12.3482C1.67982 10.1922 2.96784 8.26027 4.95572 7.4482V13.8322C4.95572 14.2243 5.12384 14.5042 5.45974 14.7002L12.4599 18.7601L10.1639 20.0761C9.96799 20.188 9.79987 20.188 9.60397 20.0761ZM9.29614 24.6681C6.13211 24.6681 3.80804 22.2881 3.80804 19.3481C3.80804 19.1241 3.83611 18.9001 3.86395 18.676L9.37994 21.8681C9.71583 22.0641 10.052 22.0641 10.3879 21.8681L17.4159 17.8083V20.4683C17.4159 20.6923 17.3319 20.8604 17.1359 20.9723L11.7878 24.0523C11.0598 24.4722 10.1917 24.6681 9.29585 24.6681H9.29614ZM16.24 28C19.6281 28 22.4559 25.5921 23.1002 22.4C26.2361 21.5879 28.2522 18.6479 28.2522 15.652C28.2522 13.6919 27.4122 11.788 25.9002 10.416C26.0402 9.82794 26.1242 9.23989 26.1242 8.65213C26.1242 4.64819 22.8762 1.65198 19.1241 1.65198C18.3683 1.65198 17.6402 1.76385 16.9122 2.01601C15.652 0.783947 13.916 0 12.0121 0C8.62406 0 5.79621 2.40786 5.15197 5.59997C2.01601 6.41204 0 9.35205 0 12.348C0 14.3081 0.83991 16.2119 2.35196 17.584C2.21196 18.172 2.12793 18.7601 2.12793 19.3479C2.12793 23.3518 5.376 26.348 9.12802 26.348C9.8839 26.348 10.6119 26.2361 11.34 25.9839C12.5999 27.216 14.3359 28 16.24 28Z" fill="white"/>
</svg>
