<svg width="28" height="28" viewBox="0 0 28 28" fill="none" xmlns="http://www.w3.org/2000/svg">
<path fill-rule="evenodd" clip-rule="evenodd" d="M28 0H0V28H28V0ZM13.6406 7.77734C12.6416 7.77737 11.7422 8.62722 11.7422 9.67578V13.9922C11.742 14.8489 11.0399 15.543 10.1914 15.543C9.6892 15.5429 9.19022 15.291 8.89355 14.8682L3.98926 7.86328C3.87853 7.70583 3.63019 7.78355 3.62988 7.97656V11.7197C3.62996 11.9088 3.68778 12.0919 3.7959 12.2471L8.62109 19.1396C8.90618 19.547 9.32744 19.85 9.8125 19.96C11.0262 20.2357 12.1435 19.3009 12.1436 18.1104V13.7969C12.1436 12.94 12.8375 12.2461 13.6943 12.2461H13.6973C14.2136 12.2462 14.6976 12.4979 14.9941 12.9209L19.377 19.1797C19.7413 19.7001 20.3025 20.0087 20.9717 20.0088C21.993 20.0088 22.868 19.1589 22.8682 18.1113V13.7959C22.8682 12.9391 23.5622 12.2453 24.4189 12.2451H24.5898C24.6973 12.2451 24.7842 12.1582 24.7842 12.0508V7.97461C24.7842 7.86719 24.6973 7.78027 24.5898 7.78027L24.5908 7.78125H24.3896C23.3287 7.7796 22.4678 8.63919 22.4678 9.7002V13.9912C22.4676 14.848 21.7588 15.542 20.916 15.542C20.4155 15.5418 19.9157 15.29 19.6191 14.8672L15.2363 8.60742C14.8728 8.08766 14.281 7.77734 13.6406 7.77734Z" fill="white"/>
</svg>
